<svg width="761" height="698" viewBox="0 0 761 698" fill="none" xmlns="http://www.w3.org/2000/svg">
<path fill-rule="evenodd" clip-rule="evenodd" d="M353.715 1.05703C440.271 -5.50472 526.568 18.8641 598.737 63.5697C672.933 109.532 755.435 170.766 760.813 253.239C766.145 334.999 655.964 380.5 624.395 457.022C595.549 526.943 652.477 628.829 587.484 673.375C522.647 717.814 434.356 640.104 353.715 642.548C268.332 645.135 183.522 725.785 108.55 687.889C34.961 650.693 40.7317 550.948 22.6143 475.189C6.37436 407.28 -11.1131 339.014 9.09792 272.025C29.9028 203.066 77.2617 144.992 136.222 98.6323C199.159 49.1455 271.4 7.29715 353.715 1.05703Z" fill="#00A3D7"/>
<path fill-rule="evenodd" clip-rule="evenodd" d="M487.738 306.49C492.346 301.081 495.464 294.453 494.943 287.025C493.442 265.625 463.651 270.333 457.857 281.134C452.062 291.935 452.75 319.333 460.24 321.263C463.226 322.033 469.589 320.147 476.065 316.244L472 345H496L487.738 306.49Z" fill="#B28B67"/>
<path fill-rule="evenodd" clip-rule="evenodd" d="M471.536 268.685C474.699 268.167 483.216 267.81 484.787 267.81C485.79 267.81 486.878 268.039 487.473 267.118C487.959 266.363 487.781 265.087 487.926 264.211C488.095 263.193 488.335 262.189 488.577 261.187C489.267 258.337 490.31 255.625 491.769 253.079C494.507 248.302 498.519 244.56 503.583 242.383C509.176 239.979 515.504 239.428 521.52 239.916C527.957 240.438 533.784 242.563 539.862 244.562C545.654 246.468 551.72 247.218 557.778 246.288C563.882 245.35 568.493 242.042 573.641 238.902C578.911 235.688 584.934 233.586 591.165 234.069C596.98 234.52 602.341 236.922 607.15 240.129C611.649 243.131 615.362 246.742 617.458 251.824C619.713 257.291 619.711 263.292 616.003 268.123C610.628 275.127 600.65 276.938 592.349 276.758C587.547 276.654 582.832 275.777 578.299 274.183C572.253 272.056 567.029 268.452 561.373 265.528C558.719 264.156 555.975 263.029 553.099 262.217C550.309 261.429 547.56 261.067 545.034 262.753C542.361 264.537 539.966 266.289 536.908 267.405C533.974 268.476 530.867 269.075 527.742 269.051C521.661 269.004 515.667 267.109 509.761 265.84C504.946 264.806 499.793 263.774 494.883 264.769C492.834 265.184 489.841 266.041 489.101 268.17C501.556 270.427 506.447 285.83 502.936 297.137C501.041 303.24 489.65 310.374 485.221 307.166C482.415 305.133 484.119 302.465 485.221 300.703C487.332 297.33 488.055 292.997 484.148 290.648C480.778 288.622 477.235 293.433 477.168 293.427C476.242 293.354 468.24 288.829 462.726 282.224C457.287 282.547 456.461 278.96 457.76 276.027C459.059 273.094 467.166 269.402 471.536 268.685Z" fill="#191847"/>
<path d="M506 602C463.474 602 429 569.093 429 528.5C429 487.907 463.474 455 506 455C548.526 455 583 487.907 583 528.5C583 569.093 548.526 602 506 602Z" fill="#C5CFD6"/>
<path fill-rule="evenodd" clip-rule="evenodd" d="M360.491 590.66C373.303 562.302 382.57 537.608 386.289 524.58C392.657 502.273 397.502 482.643 398.727 475.313C401.647 457.832 376.265 456.814 372.91 465.502C367.832 478.651 358.967 521.853 348.315 587.107L360.491 590.66ZM509.112 501.664C497.356 497.017 456.188 482.475 436.333 478.361C430.627 477.179 425.097 476.081 419.898 475.088C404.444 472.138 396.437 500.017 411.321 502.16C448.388 507.494 500.937 513.003 505.434 513.622C511.737 514.488 516.5 504.584 509.112 501.664Z" fill="#B28B67"/>
<path fill-rule="evenodd" clip-rule="evenodd" d="M410.413 467.416L474 435.047V428H466.438C404.92 443.676 373.485 453.722 372.131 458.138C372.117 458.185 372.103 458.233 372.091 458.281C372.06 458.321 372.03 458.362 372 458.403C359.808 475.17 352.507 557.027 350.111 563.156L373.472 566.641C382.409 533.503 411 510.418 410.241 470.729C410.446 469.565 410.497 468.461 410.413 467.416Z" fill="#1F28CF"/>
<path fill-rule="evenodd" clip-rule="evenodd" d="M468.717 486.64C474.535 485.476 479.893 484.436 484.477 483.632C514.091 478.438 522.726 462.586 517.62 428H463.058C454.145 430.56 407.826 449.985 383.793 460.316C367.887 467.154 372.901 491.804 381.909 498.219C381.958 498.613 382.12 498.88 382.409 499C430.863 519.083 469.195 508.545 482 511.912L487.923 493.228L468.717 486.64Z" fill="#2B44FF"/>
<path fill-rule="evenodd" clip-rule="evenodd" d="M505.092 498.694C508.267 498.997 510.521 499.474 511.853 500.124C513.474 500.915 515.707 502.338 518.554 504.395C517.636 506.275 509.395 523.173 493.829 555.088C488.831 554.282 486.851 552.375 487.888 549.367C488.925 546.359 489.761 543.849 490.397 541.835L491.385 513.15C491.404 512.598 491.867 512.166 492.419 512.185C492.428 512.185 492.438 512.186 492.447 512.186L496.86 512.463C499.367 510.434 501.021 508.598 501.823 506.955C502.474 505.62 502.833 503.514 502.902 500.637L502.902 500.637C502.929 499.533 503.846 498.659 504.95 498.685C504.997 498.686 505.045 498.689 505.092 498.694Z" fill="#E4E4E4"/>
<path fill-rule="evenodd" clip-rule="evenodd" d="M366.322 585.402C367.441 588.388 368 590.623 368 592.106C368 593.909 367.7 596.54 367.099 600C365.007 600 346.206 600 310.697 600C309.231 595.154 310.077 592.539 313.235 592.152C316.393 591.766 319.016 591.417 321.105 591.106L347.32 579.419C347.824 579.194 348.416 579.421 348.641 579.925C348.644 579.934 348.648 579.942 348.652 579.951L350.337 584.039C353.26 585.403 355.636 586.085 357.463 586.085C358.948 586.085 360.999 585.485 363.616 584.285L363.616 584.285C364.62 583.825 365.807 584.266 366.267 585.27C366.287 585.313 366.305 585.357 366.322 585.402Z" fill="#E4E4E4"/>
<path fill-rule="evenodd" clip-rule="evenodd" d="M412 400.617L375.765 384.704C369.418 378.379 363.289 373.572 357.377 370.282C355.61 369.719 352.59 369.549 355.812 374.255C359.034 378.961 362.211 384.056 360.924 385.705C359.636 387.355 355.907 385.534 354.434 388.216C353.451 390.004 359.738 392.143 373.293 394.633L400.43 415.439L412 400.617ZM558.492 405L538 409.066C558.608 447.471 569.66 467.826 571.155 470.13C574.52 475.315 571.38 484.817 570.221 489.821C577.496 491.515 574.627 480.565 583.833 482.851C592.236 484.938 599.361 490.293 607.196 483.071C608.159 482.183 608.865 479.407 605.58 477.984C597.397 474.437 585.308 467.796 583.348 465.218C580.674 461.702 572.389 441.63 558.492 405Z" fill="#B28B67"/>
<path fill-rule="evenodd" clip-rule="evenodd" d="M482.305 328.332L473.658 326.849C454.824 345.119 447.138 389.012 434.586 394.822C422.719 400.316 405.896 395 385.9 387.822L379.777 401.505C397.945 421.161 436.651 437.767 452.34 428.287C477.424 413.13 483.214 358.994 482.305 328.332Z" fill="#DB2721"/>
<path fill-rule="evenodd" clip-rule="evenodd" d="M520 437C485.328 437 459.824 437 443.489 437C439.992 437 440.651 431.952 441.157 429.404C446.989 400.004 469.759 368.312 469.759 326.461L491.828 323C510.083 352.358 516.395 388.505 520 437Z" fill="#DDE3E9"/>
<path fill-rule="evenodd" clip-rule="evenodd" d="M527.631 407.233C543.229 435.368 556.339 455.623 566.963 468L583 464.859C572.669 400.791 542.753 353.504 493.252 323H489.269L484.514 323C464.701 390.537 459.239 435.537 468.128 458H537C535.91 441.563 532.417 424.181 527.631 407.233H527.631Z" fill="#FF4133"/>
<path fill-rule="evenodd" clip-rule="evenodd" d="M129.861 170.607C127.585 167.892 126.044 164.565 126.301 160.837C127.043 150.097 141.76 152.459 144.622 157.88C147.485 163.301 147.145 177.052 143.445 178.021C141.97 178.408 138.826 177.461 135.627 175.502L137.635 189.934H125.779L129.861 170.607Z" fill="#B28B67"/>
<path fill-rule="evenodd" clip-rule="evenodd" d="M139.393 158.667C137.784 159.581 136.639 161.294 135.261 163.542C134.925 163.408 134.56 163.334 134.177 163.334C132.54 163.334 131.213 164.682 131.213 166.345C131.213 167.19 131.555 167.953 132.106 168.5C131.42 169.483 130.652 170.511 129.771 171.571C126.484 169.567 124.04 163.728 127.178 158.091C129.878 146.8 145.178 153.809 148.122 151.904C148.765 156.002 146.69 159.305 139.393 158.667Z" fill="#191847"/>
<path fill-rule="evenodd" clip-rule="evenodd" d="M125.302 233.506L149.548 295.855L165.81 348.565H172.232L147.371 233.506L125.302 233.506Z" fill="#997659"/>
<path fill-rule="evenodd" clip-rule="evenodd" d="M120.419 233.506C120.161 255.416 116.396 284.914 115.794 286.28C115.393 287.19 101.548 298.769 74.2593 321.015L78.6822 325.824C110.881 306.75 127.725 295.941 129.215 293.397C131.45 289.582 138.726 254.467 144.568 233.506H120.419Z" fill="#B28B67"/>
<path fill-rule="evenodd" clip-rule="evenodd" d="M73.678 319.414C72.1907 319.949 71.1659 320.457 70.6038 320.936C69.92 321.519 69.0176 322.485 67.8965 323.835C68.5602 324.639 74.5252 331.862 85.7916 345.506C88.0938 344.503 88.8172 343.332 87.9618 341.994C87.1064 340.655 86.4063 339.535 85.8617 338.631L81.9754 324.781C81.9006 324.514 81.6271 324.36 81.3645 324.437C81.36 324.438 81.3555 324.44 81.3511 324.441L79.2666 325.115C77.8219 324.433 76.8096 323.74 76.2298 323.038C75.7586 322.468 75.3353 321.486 74.96 320.093L74.96 320.093C74.8159 319.558 74.2721 319.244 73.7454 319.392C73.7227 319.399 73.7002 319.406 73.678 319.414Z" fill="#E4E4E4"/>
<path fill-rule="evenodd" clip-rule="evenodd" d="M163.181 346.132C162.628 347.631 162.352 348.753 162.352 349.497C162.352 350.402 162.5 351.722 162.797 353.459C163.831 353.459 173.118 353.459 190.66 353.459C191.384 351.027 190.966 349.714 189.406 349.52C187.846 349.326 186.55 349.151 185.518 348.995L172.568 343.129C172.319 343.016 172.027 343.13 171.916 343.383C171.914 343.388 171.912 343.392 171.91 343.396L171.078 345.448C169.634 346.132 168.46 346.475 167.557 346.475C166.824 346.475 165.811 346.174 164.518 345.572L164.518 345.572C164.022 345.341 163.436 345.562 163.208 346.066C163.198 346.088 163.189 346.11 163.181 346.132Z" fill="#E4E4E4"/>
<path fill-rule="evenodd" clip-rule="evenodd" d="M141.604 343.136L172.135 339.77L149.508 233.506H122.162L141.604 343.136Z" fill="#69A1AC"/>
<path fill-rule="evenodd" clip-rule="evenodd" d="M80.5747 313.257L100.602 337.341C121.696 313.935 133.993 298.662 137.495 291.523C140.997 284.384 144.145 265.045 146.939 233.506H116.152C114.626 261.253 113.597 275.772 113.066 277.063C112.534 278.354 101.704 290.419 80.5747 313.257Z" fill="#89C5CC"/>
<path fill-rule="evenodd" clip-rule="evenodd" d="M169.873 227.439L184.391 241.736C188.615 243.555 192.077 245.563 194.775 247.761C195.381 248.5 196.042 249.915 193.187 249.282C190.332 248.649 187.301 248.112 186.765 249.049C186.228 249.986 187.809 251.422 186.818 252.649C186.157 253.466 183.933 250.866 180.148 244.846L165.051 235.862L169.873 227.439ZM98.879 214.5L110.102 214.543C101.554 242.497 97.0169 257.133 96.4898 258.451C95.3039 261.418 97.8134 265.936 98.8866 268.364C95.3913 269.943 95.7637 264.096 91.3545 266.167C87.33 268.057 84.2685 271.481 79.6187 268.585C79.047 268.229 78.4206 266.888 79.9342 265.841C83.7051 263.231 89.1391 258.663 89.8734 257.159C90.8746 255.109 93.8765 240.889 98.879 214.5Z" fill="#B28B67"/>
<path fill-rule="evenodd" clip-rule="evenodd" d="M133.076 182.365L137.508 181.597C144.489 206.508 180.359 223.488 182.561 232.801C183.368 236.216 180.933 237.942 182.191 238.982L176.431 243.239C175.455 242.09 173.374 244.191 169.026 242.721C164.679 241.251 133.076 211.861 133.076 182.365Z" fill="#DB2721"/>
<path fill-rule="evenodd" clip-rule="evenodd" d="M140.531 185.676C140.02 218.656 158.907 227.069 154.7 240.299C151.226 251.225 117.974 262.969 112.22 252.26C109.891 247.925 108.834 242.682 108.714 236.982C107.243 241.361 106.08 245.131 105.225 248.292C103.749 253.744 98.0265 254.611 98.0265 256.712L90.4877 254.611C90.9991 251.757 87.4451 250.368 88.398 243.992C92.6676 215.426 104.139 194.72 122.813 181.873L123.01 179.022C123.089 177.917 124.032 177.084 125.12 177.159L139.072 178.143C140.161 178.219 140.982 179.177 140.906 180.284C140.906 180.284 140.906 180.285 140.904 180.285L140.531 185.676Z" fill="#FF4133"/>
</svg>
