<svg width="231" height="231" viewBox="0 0 231 231" fill="none" xmlns="http://www.w3.org/2000/svg">
<path d="M202.217 177.088C215.987 164.816 223.783 148.459 223.783 131.485C223.783 113.445 215.338 96.5738 200.004 83.9762C185.079 71.7196 165.324 64.9688 144.375 64.9688C123.426 64.9688 103.671 71.7196 88.7487 83.9771C73.4138 96.5738 64.9688 113.445 64.9688 131.485C64.9688 149.524 73.4138 166.395 88.7487 178.993C103.671 191.25 123.426 198.001 144.375 198.001C147.166 198.001 149.975 197.878 152.76 197.633L157.518 201.757C173.91 215.961 194.873 223.78 216.562 223.781H223.781V208.416L221.667 206.302C213.327 197.937 206.718 188.01 202.217 177.088ZM166.974 190.846L157.426 182.571L154.243 182.961C150.969 183.361 147.673 183.562 144.375 183.562C108.552 183.562 79.4062 160.2 79.4062 131.485C79.4062 102.769 108.552 79.4062 144.375 79.4062C180.198 79.4062 209.344 102.768 209.344 131.485C209.344 145.791 202.206 159.148 189.246 169.093L185.088 172.284L187.007 177.713C190.938 188.803 196.717 199.148 204.098 208.311C190.352 206.016 177.506 199.973 166.974 190.846Z" fill="#00A3D7"/>
<path d="M27.1538 143.236C33.9111 134.683 39.2166 125.077 42.8582 114.802L44.7621 109.399L40.6082 106.211C28.3868 96.8332 21.6563 84.2464 21.6563 70.7695C21.6563 43.6883 49.1818 21.6562 83.0156 21.6562C107.906 21.6562 129.381 33.5807 138.996 50.6666C140.781 50.58 142.574 50.5312 144.375 50.5312C147.993 50.5312 151.577 50.7068 155.128 51.0578C151.413 41.432 144.96 32.645 136.089 25.3586C121.849 13.661 103.003 7.21875 83.0156 7.21875C63.0287 7.21875 44.1824 13.661 29.9416 25.3586C15.2884 37.3954 7.21875 53.5225 7.21875 70.7695C7.21875 86.9214 14.5963 102.485 27.6343 114.192C23.3795 124.431 17.1624 133.739 9.33339 141.591L7.21875 143.705V158.812H14.4375C27.7864 158.811 40.9516 155.702 52.8913 149.733C51.5821 144.77 50.815 139.681 50.6034 134.553C43.3566 138.8 35.4191 141.739 27.1538 143.236Z" fill="#00A3D7"/>
<path d="M46.075 55.5H54.025C55.925 55.5 57.6 55.8667 59.05 56.6C60.5167 57.3167 61.65 58.3333 62.45 59.65C63.2667 60.9667 63.675 62.5 63.675 64.25C63.675 66 63.2667 67.5333 62.45 68.85C61.65 70.1667 60.5167 71.1917 59.05 71.925C57.6 72.6417 55.925 73 54.025 73H46.075V55.5ZM53.825 69.675C55.575 69.675 56.9667 69.1917 58 68.225C59.05 67.2417 59.575 65.9167 59.575 64.25C59.575 62.5833 59.05 61.2667 58 60.3C56.9667 59.3167 55.575 58.825 53.825 58.825H50.125V69.675H53.825ZM80.7793 69.75V73H67.2293V55.5H80.4543V58.75H71.2543V62.55H79.3793V65.7H71.2543V69.75H80.7793ZM101.083 55.5L93.5076 73H89.5076L81.9576 55.5H86.3326L91.6576 68L97.0576 55.5H101.083Z" fill="#00A3D7"/>
<path d="M107.688 134.192C106.547 134.192 105.512 133.947 104.584 133.456C103.667 132.955 102.941 132.267 102.408 131.392C101.885 130.507 101.624 129.509 101.624 128.4C101.624 127.291 101.885 126.299 102.408 125.424C102.941 124.539 103.667 123.851 104.584 123.36C105.512 122.859 106.552 122.608 107.704 122.608C108.675 122.608 109.549 122.779 110.328 123.12C111.117 123.461 111.779 123.952 112.312 124.592L110.648 126.128C109.891 125.253 108.952 124.816 107.832 124.816C107.139 124.816 106.52 124.971 105.976 125.28C105.432 125.579 105.005 126 104.696 126.544C104.397 127.088 104.248 127.707 104.248 128.4C104.248 129.093 104.397 129.712 104.696 130.256C105.005 130.8 105.432 131.227 105.976 131.536C106.52 131.835 107.139 131.984 107.832 131.984C108.952 131.984 109.891 131.541 110.648 130.656L112.312 132.192C111.779 132.843 111.117 133.339 110.328 133.68C109.539 134.021 108.659 134.192 107.688 134.192ZM124.654 122.8V134H122.062V129.408H116.974V134H114.382V122.8H116.974V127.216H122.062V122.8H124.654ZM135 131.6H129.8L128.808 134H126.152L131.144 122.8H133.704L138.712 134H135.992L135 131.6ZM134.184 129.632L132.408 125.344L130.632 129.632H134.184ZM141.952 124.912H138.368V122.8H148.128V124.912H144.544V134H141.952V124.912ZM152.319 124.912H148.735V122.8H158.495V124.912H154.911V134H152.319V124.912ZM168.881 131.92V134H160.209V122.8H168.673V124.88H162.785V127.312H167.985V129.328H162.785V131.92H168.881ZM178.4 134L176.24 130.88H176.112H173.856V134H171.264V122.8H176.112C177.104 122.8 177.962 122.965 178.688 123.296C179.424 123.627 179.989 124.096 180.384 124.704C180.778 125.312 180.976 126.032 180.976 126.864C180.976 127.696 180.773 128.416 180.368 129.024C179.973 129.621 179.408 130.08 178.672 130.4L181.184 134H178.4ZM178.352 126.864C178.352 126.235 178.149 125.755 177.744 125.424C177.338 125.083 176.746 124.912 175.968 124.912H173.856V128.816H175.968C176.746 128.816 177.338 128.645 177.744 128.304C178.149 127.963 178.352 127.483 178.352 126.864Z" fill="#00A3D7"/>
</svg>
