<svg width="471" height="320" viewBox="0 0 471 320" fill="none" xmlns="http://www.w3.org/2000/svg">
<path d="M322.217 177.088C335.987 164.816 343.783 148.459 343.783 131.485C343.783 113.445 335.338 96.5738 320.004 83.9762C305.079 71.7196 285.324 64.9688 264.375 64.9688C243.426 64.9688 223.671 71.7196 208.749 83.9771C193.414 96.5738 184.969 113.445 184.969 131.485C184.969 149.524 193.414 166.395 208.749 178.993C223.671 191.25 243.426 198.001 264.375 198.001C267.166 198.001 269.975 197.878 272.76 197.633L277.518 201.757C293.91 215.961 314.873 223.78 336.562 223.781H343.781V208.416L341.667 206.302C333.327 197.937 326.718 188.01 322.217 177.088ZM286.974 190.846L277.426 182.571L274.243 182.961C270.969 183.361 267.673 183.562 264.375 183.562C228.552 183.562 199.406 160.2 199.406 131.485C199.406 102.769 228.552 79.4062 264.375 79.4062C300.198 79.4062 329.344 102.768 329.344 131.485C329.344 145.791 322.206 159.148 309.246 169.093L305.088 172.284L307.007 177.713C310.938 188.803 316.717 199.148 324.098 208.311C310.352 206.016 297.506 199.973 286.974 190.846Z" fill="black"/>
<path d="M147.154 143.236C153.911 134.683 159.217 125.077 162.858 114.802L164.762 109.399L160.608 106.211C148.387 96.8332 141.656 84.2464 141.656 70.7695C141.656 43.6883 169.182 21.6562 203.016 21.6562C227.906 21.6562 249.381 33.5807 258.996 50.6666C260.781 50.58 262.574 50.5312 264.375 50.5312C267.993 50.5312 271.577 50.7068 275.128 51.0578C271.413 41.432 264.96 32.645 256.089 25.3586C241.849 13.661 223.003 7.21875 203.016 7.21875C183.029 7.21875 164.182 13.661 149.942 25.3586C135.288 37.3954 127.219 53.5225 127.219 70.7695C127.219 86.9214 134.596 102.485 147.634 114.192C143.379 124.431 137.162 133.739 129.333 141.591L127.219 143.705V158.812H134.438C147.786 158.811 160.952 155.702 172.891 149.733C171.582 144.77 170.815 139.681 170.603 134.553C163.357 138.8 155.419 141.739 147.154 143.236Z" fill="black"/>
<path d="M166.075 55.5H174.025C175.925 55.5 177.6 55.8667 179.05 56.6C180.517 57.3167 181.65 58.3333 182.45 59.65C183.267 60.9667 183.675 62.5 183.675 64.25C183.675 66 183.267 67.5333 182.45 68.85C181.65 70.1667 180.517 71.1917 179.05 71.925C177.6 72.6417 175.925 73 174.025 73H166.075V55.5ZM173.825 69.675C175.575 69.675 176.967 69.1917 178 68.225C179.05 67.2417 179.575 65.9167 179.575 64.25C179.575 62.5833 179.05 61.2667 178 60.3C176.967 59.3167 175.575 58.825 173.825 58.825H170.125V69.675H173.825ZM200.779 69.75V73H187.229V55.5H200.454V58.75H191.254V62.55H199.379V65.7H191.254V69.75H200.779ZM221.083 55.5L213.508 73H209.508L201.958 55.5H206.333L211.658 68L217.058 55.5H221.083Z" fill="black"/>
<path d="M227.688 134.192C226.547 134.192 225.512 133.947 224.584 133.456C223.667 132.955 222.941 132.267 222.408 131.392C221.885 130.507 221.624 129.509 221.624 128.4C221.624 127.291 221.885 126.299 222.408 125.424C222.941 124.539 223.667 123.851 224.584 123.36C225.512 122.859 226.552 122.608 227.704 122.608C228.675 122.608 229.549 122.779 230.328 123.12C231.117 123.461 231.779 123.952 232.312 124.592L230.648 126.128C229.891 125.253 228.952 124.816 227.832 124.816C227.139 124.816 226.52 124.971 225.976 125.28C225.432 125.579 225.005 126 224.696 126.544C224.397 127.088 224.248 127.707 224.248 128.4C224.248 129.093 224.397 129.712 224.696 130.256C225.005 130.8 225.432 131.227 225.976 131.536C226.52 131.835 227.139 131.984 227.832 131.984C228.952 131.984 229.891 131.541 230.648 130.656L232.312 132.192C231.779 132.843 231.117 133.339 230.328 133.68C229.539 134.021 228.659 134.192 227.688 134.192ZM244.654 122.8V134H242.062V129.408H236.974V134H234.382V122.8H236.974V127.216H242.062V122.8H244.654ZM255 131.6H249.8L248.808 134H246.152L251.144 122.8H253.704L258.712 134H255.992L255 131.6ZM254.184 129.632L252.408 125.344L250.632 129.632H254.184ZM261.952 124.912H258.368V122.8H268.128V124.912H264.544V134H261.952V124.912ZM272.319 124.912H268.735V122.8H278.495V124.912H274.911V134H272.319V124.912ZM288.881 131.92V134H280.209V122.8H288.673V124.88H282.785V127.312H287.985V129.328H282.785V131.92H288.881ZM298.4 134L296.24 130.88H296.112H293.856V134H291.264V122.8H296.112C297.104 122.8 297.962 122.965 298.688 123.296C299.424 123.627 299.989 124.096 300.384 124.704C300.778 125.312 300.976 126.032 300.976 126.864C300.976 127.696 300.773 128.416 300.368 129.024C299.973 129.621 299.408 130.08 298.672 130.4L301.184 134H298.4ZM298.352 126.864C298.352 126.235 298.149 125.755 297.744 125.424C297.338 125.083 296.746 124.912 295.968 124.912H293.856V128.816H295.968C296.746 128.816 297.338 128.645 297.744 128.304C298.149 127.963 298.352 127.483 298.352 126.864Z" fill="black"/>
<path d="M50.5078 215.477H69.4922V247.151H50.5078V215.477Z" fill="#ADB8BC"/>
<path d="M14.7761 240.409H105.224C107.927 240.409 110.118 242.6 110.118 245.303V247.03C110.118 249.733 107.927 251.924 105.224 251.924H14.7761C12.0733 251.924 9.88232 249.733 9.88232 247.03V245.303C9.88232 242.6 12.0735 240.409 14.7761 240.409Z" fill="#C5CFD1"/>
<path d="M4.88135 146.085H115.118C116.982 146.085 118.493 147.596 118.493 149.46V227.939C118.493 229.803 116.982 231.314 115.118 231.314H4.88135C3.01736 231.314 1.50635 229.803 1.50635 227.939V149.46C1.50635 147.596 3.01736 146.085 4.88135 146.085Z" fill="#C5CFD1"/>
<path d="M14.7114 156.817H105.289C107.153 156.817 108.664 158.328 108.664 160.192V217.207C108.664 219.071 107.153 220.582 105.289 220.582H14.7114C12.8474 220.582 11.3364 219.071 11.3364 217.207V160.192C11.3364 158.328 12.8474 156.817 14.7114 156.817V156.817Z" fill="black"/>
<path d="M100.472 228.836C102.067 228.836 103.359 227.543 103.359 225.948C103.359 224.354 102.067 223.061 100.472 223.061C98.8776 223.061 97.585 224.354 97.585 225.948C97.585 227.543 98.8776 228.836 100.472 228.836Z" fill="#D7F4F7"/>
<path d="M85.5505 228.077H92.1568C92.7213 228.077 93.2628 227.852 93.6619 227.453C94.0611 227.054 94.2854 226.513 94.2854 225.948C94.2854 225.384 94.0611 224.842 93.6619 224.443C93.2628 224.044 92.7213 223.819 92.1568 223.819H85.5505C84.9859 223.819 84.4445 224.044 84.0453 224.443C83.6461 224.842 83.4219 225.384 83.4219 225.948C83.4221 227.124 84.3751 228.077 85.5505 228.077Z" fill="#8F9799"/>
<path d="M401.508 280.477H420.492V312.151H401.508V280.477Z" fill="#ADB8BC"/>
<path d="M365.776 305.409H456.224C458.927 305.409 461.118 307.6 461.118 310.303V312.03C461.118 314.733 458.927 316.924 456.224 316.924H365.776C363.073 316.924 360.882 314.733 360.882 312.03V310.303C360.882 307.6 363.073 305.409 365.776 305.409Z" fill="#C5CFD1"/>
<path d="M355.881 211.085H466.118C467.982 211.085 469.493 212.596 469.493 214.46V292.939C469.493 294.803 467.982 296.314 466.118 296.314H355.881C354.017 296.314 352.506 294.803 352.506 292.939V214.46C352.506 212.596 354.017 211.085 355.881 211.085Z" fill="#C5CFD1"/>
<path d="M365.711 221.817H456.289C458.153 221.817 459.664 223.328 459.664 225.192V282.207C459.664 284.071 458.153 285.582 456.289 285.582H365.711C363.847 285.582 362.336 284.071 362.336 282.207V225.192C362.336 223.328 363.847 221.817 365.711 221.817V221.817Z" fill="black"/>
<path d="M451.472 293.836C453.067 293.836 454.359 292.543 454.359 290.948C454.359 289.354 453.067 288.061 451.472 288.061C449.878 288.061 448.585 289.354 448.585 290.948C448.585 292.543 449.878 293.836 451.472 293.836Z" fill="#D7F4F7"/>
<path d="M436.55 293.077H443.157C443.721 293.077 444.263 292.852 444.662 292.453C445.061 292.054 445.285 291.513 445.285 290.948C445.285 290.384 445.061 289.842 444.662 289.443C444.263 289.044 443.721 288.819 443.157 288.819H436.55C435.986 288.819 435.445 289.044 435.045 289.443C434.646 289.842 434.422 290.384 434.422 290.948C434.422 292.124 435.375 293.077 436.55 293.077Z" fill="#8F9799"/>
</svg>
