<svg width="761" height="698" viewBox="0 0 761 698" fill="none" xmlns="http://www.w3.org/2000/svg">
<path fill-rule="evenodd" clip-rule="evenodd" d="M353.715 1.05703C440.271 -5.50472 526.568 18.8641 598.737 63.5697C672.933 109.532 755.435 170.766 760.813 253.239C766.145 334.999 655.964 380.5 624.395 457.022C595.549 526.943 652.477 628.829 587.484 673.375C522.647 717.814 434.356 640.104 353.715 642.548C268.332 645.135 183.522 725.785 108.55 687.889C34.961 650.693 40.7317 550.948 22.6143 475.189C6.37436 407.28 -11.1131 339.015 9.09792 272.025C29.9028 203.066 77.2617 144.992 136.222 98.6323C199.159 49.1455 271.4 7.29715 353.715 1.05703Z" fill="#00A3D7"/>
<path fill-rule="evenodd" clip-rule="evenodd" d="M487.738 306.49C492.346 301.081 495.464 294.453 494.943 287.025C493.442 265.625 463.651 270.333 457.857 281.134C452.062 291.935 452.75 319.333 460.24 321.263C463.226 322.033 469.589 320.147 476.065 316.244L472 345H496L487.738 306.49Z" fill="#B28B67"/>
<path fill-rule="evenodd" clip-rule="evenodd" d="M471.536 268.685C474.699 268.167 483.216 267.81 484.787 267.81C485.79 267.81 486.878 268.039 487.473 267.118C487.959 266.363 487.781 265.087 487.926 264.211C488.095 263.193 488.335 262.189 488.577 261.187C489.267 258.337 490.31 255.625 491.769 253.079C494.507 248.302 498.519 244.56 503.583 242.383C509.176 239.979 515.504 239.428 521.52 239.916C527.957 240.438 533.784 242.563 539.862 244.562C545.654 246.468 551.72 247.218 557.778 246.288C563.881 245.35 568.493 242.042 573.641 238.902C578.911 235.688 584.934 233.586 591.165 234.069C596.98 234.52 602.341 236.922 607.15 240.129C611.649 243.131 615.362 246.742 617.458 251.824C619.713 257.291 619.711 263.292 616.003 268.123C610.628 275.127 600.65 276.938 592.349 276.758C587.547 276.654 582.832 275.777 578.299 274.183C572.253 272.056 567.029 268.452 561.373 265.528C558.719 264.156 555.975 263.029 553.099 262.217C550.309 261.429 547.56 261.067 545.034 262.753C542.361 264.537 539.966 266.289 536.908 267.405C533.974 268.476 530.867 269.075 527.742 269.051C521.661 269.004 515.667 267.109 509.761 265.84C504.946 264.806 499.793 263.774 494.883 264.769C492.834 265.184 489.841 266.041 489.101 268.17C501.556 270.427 506.447 285.83 502.936 297.137C501.041 303.24 489.65 310.374 485.221 307.166C482.415 305.133 484.119 302.465 485.221 300.703C487.332 297.33 488.055 292.997 484.148 290.648C480.778 288.622 477.235 293.433 477.168 293.427C476.242 293.354 468.24 288.829 462.726 282.224C457.287 282.547 456.461 278.96 457.76 276.027C459.059 273.094 467.166 269.402 471.536 268.685Z" fill="#191847"/>
<path d="M506 602C463.474 602 429 569.093 429 528.5C429 487.907 463.474 455 506 455C548.526 455 583 487.907 583 528.5C583 569.093 548.526 602 506 602Z" fill="#C5CFD6"/>
<path fill-rule="evenodd" clip-rule="evenodd" d="M360.49 590.66C373.303 562.302 382.569 537.608 386.289 524.58C392.657 502.273 397.502 482.643 398.726 475.313C401.646 457.832 376.264 456.814 372.909 465.502C367.832 478.651 358.967 521.853 348.315 587.107L360.49 590.66ZM509.111 501.664C497.356 497.017 456.188 482.475 436.332 478.361C430.627 477.179 425.097 476.081 419.898 475.088C404.444 472.138 396.437 500.017 411.321 502.16C448.388 507.494 500.937 513.003 505.434 513.622C511.737 514.488 516.499 504.584 509.111 501.664Z" fill="#B28B67"/>
<path fill-rule="evenodd" clip-rule="evenodd" d="M410.413 467.416L474 435.047V428H466.438C404.92 443.676 373.485 453.722 372.131 458.138C372.117 458.185 372.103 458.233 372.091 458.281C372.06 458.321 372.03 458.362 372 458.403C359.808 475.17 352.507 557.027 350.111 563.156L373.472 566.641C382.409 533.503 411 510.418 410.241 470.729C410.446 469.565 410.497 468.461 410.413 467.416Z" fill="#1F28CF"/>
<path fill-rule="evenodd" clip-rule="evenodd" d="M468.717 486.64C474.535 485.476 479.893 484.436 484.477 483.632C514.091 478.438 522.726 462.586 517.62 428H463.058C454.145 430.56 407.826 449.985 383.793 460.316C367.887 467.154 372.901 491.804 381.909 498.219C381.958 498.613 382.12 498.88 382.409 499C430.863 519.083 469.195 508.545 482 511.912L487.923 493.228L468.717 486.64Z" fill="#2B44FF"/>
<path fill-rule="evenodd" clip-rule="evenodd" d="M505.093 498.694C508.268 498.997 510.521 499.474 511.854 500.124C513.475 500.915 515.708 502.338 518.554 504.395C517.637 506.275 509.396 523.173 493.829 555.088C488.832 554.282 486.851 552.375 487.888 549.367C488.926 546.359 489.762 543.849 490.398 541.835L491.386 513.15C491.405 512.598 491.868 512.166 492.419 512.185C492.429 512.185 492.438 512.186 492.448 512.186L496.86 512.463C499.368 510.434 501.022 508.598 501.823 506.955C502.474 505.62 502.834 503.514 502.903 500.637L502.903 500.637C502.93 499.533 503.846 498.659 504.951 498.685C504.998 498.686 505.046 498.689 505.093 498.694Z" fill="#E4E4E4"/>
<path fill-rule="evenodd" clip-rule="evenodd" d="M366.322 585.402C367.441 588.388 368 590.623 368 592.106C368 593.909 367.7 596.54 367.099 600C365.007 600 346.206 600 310.697 600C309.231 595.154 310.077 592.539 313.235 592.152C316.393 591.766 319.016 591.417 321.105 591.106L347.32 579.419C347.824 579.194 348.416 579.421 348.641 579.925C348.644 579.934 348.648 579.942 348.652 579.951L350.337 584.039C353.26 585.403 355.636 586.085 357.463 586.085C358.948 586.085 360.999 585.485 363.616 584.285L363.616 584.285C364.62 583.825 365.807 584.266 366.267 585.27C366.287 585.313 366.305 585.357 366.322 585.402Z" fill="#E4E4E4"/>
<path fill-rule="evenodd" clip-rule="evenodd" d="M412 400.617L375.765 384.704C369.418 378.379 363.289 373.572 357.377 370.282C355.61 369.719 352.59 369.549 355.812 374.255C359.034 378.961 362.211 384.056 360.924 385.705C359.636 387.355 355.907 385.534 354.434 388.216C353.451 390.004 359.738 392.143 373.293 394.633L400.43 415.439L412 400.617ZM558.492 405L538 409.066C558.608 447.471 569.66 467.826 571.155 470.13C574.52 475.315 571.38 484.817 570.221 489.821C577.496 491.515 574.627 480.565 583.833 482.851C592.236 484.938 599.361 490.293 607.196 483.071C608.159 482.183 608.865 479.407 605.58 477.984C597.397 474.437 585.308 467.796 583.348 465.218C580.674 461.702 572.389 441.629 558.492 405Z" fill="#B28B67"/>
<path fill-rule="evenodd" clip-rule="evenodd" d="M482.306 328.332L473.659 326.849C454.824 345.119 447.138 389.012 434.587 394.822C422.72 400.316 405.897 395 385.901 387.822L379.777 401.505C397.946 421.161 436.652 437.767 452.341 428.287C477.424 413.13 483.215 358.994 482.306 328.332Z" fill="#DB2721"/>
<path fill-rule="evenodd" clip-rule="evenodd" d="M520 437C485.328 437 459.824 437 443.489 437C439.992 437 440.651 431.952 441.157 429.404C446.989 400.004 469.759 368.312 469.759 326.461L491.828 323C510.083 352.358 516.395 388.505 520 437Z" fill="#DDE3E9"/>
<path fill-rule="evenodd" clip-rule="evenodd" d="M527.631 407.233C543.229 435.368 556.339 455.623 566.963 468L583 464.859C572.669 400.791 542.753 353.504 493.252 323H489.269L484.514 323C464.701 390.537 459.239 435.537 468.128 458H537C535.91 441.563 532.417 424.181 527.631 407.233H527.631Z" fill="#FF4133"/>
<path d="M141.863 274.944H136.391V282H128.807V274.944H110.711V269.712L126.551 248.4H134.711L120.023 268.608H129.047V262.32H136.391V268.608H141.863V274.944ZM159.548 282.576C156.764 282.576 154.284 281.888 152.108 280.512C149.932 279.136 148.22 277.152 146.972 274.56C145.756 271.936 145.148 268.816 145.148 265.2C145.148 261.584 145.756 258.48 146.972 255.888C148.22 253.264 149.932 251.264 152.108 249.888C154.284 248.512 156.764 247.824 159.548 247.824C162.332 247.824 164.812 248.512 166.988 249.888C169.164 251.264 170.86 253.264 172.076 255.888C173.324 258.48 173.948 261.584 173.948 265.2C173.948 268.816 173.324 271.936 172.076 274.56C170.86 277.152 169.164 279.136 166.988 280.512C164.812 281.888 162.332 282.576 159.548 282.576ZM159.548 276C161.596 276 163.196 275.12 164.348 273.36C165.532 271.6 166.124 268.88 166.124 265.2C166.124 261.52 165.532 258.8 164.348 257.04C163.196 255.28 161.596 254.4 159.548 254.4C157.532 254.4 155.932 255.28 154.748 257.04C153.596 258.8 153.02 261.52 153.02 265.2C153.02 268.88 153.596 271.6 154.748 273.36C155.932 275.12 157.532 276 159.548 276ZM209.454 274.944H203.982V282H196.398V274.944H178.302V269.712L194.142 248.4H202.302L187.614 268.608H196.638V262.32H203.982V268.608H209.454V274.944ZM243.95 248.4C246.926 248.4 249.502 248.896 251.678 249.888C253.886 250.88 255.582 252.288 256.766 254.112C257.95 255.936 258.542 258.096 258.542 260.592C258.542 263.056 257.95 265.216 256.766 267.072C255.582 268.896 253.886 270.304 251.678 271.296C249.502 272.256 246.926 272.736 243.95 272.736H237.182V282H229.406V248.4H243.95ZM243.518 266.4C245.854 266.4 247.63 265.904 248.846 264.912C250.062 263.888 250.67 262.448 250.67 260.592C250.67 258.704 250.062 257.264 248.846 256.272C247.63 255.248 245.854 254.736 243.518 254.736H237.182V266.4H243.518ZM285.494 274.8H269.894L266.918 282H258.95L273.926 248.4H281.606L296.63 282H288.47L285.494 274.8ZM283.046 268.896L277.718 256.032L272.39 268.896H283.046ZM323.311 264.672H330.415V278.304C328.591 279.68 326.479 280.736 324.079 281.472C321.679 282.208 319.263 282.576 316.831 282.576C313.343 282.576 310.207 281.84 307.423 280.368C304.639 278.864 302.447 276.8 300.847 274.176C299.279 271.52 298.495 268.528 298.495 265.2C298.495 261.872 299.279 258.896 300.847 256.272C302.447 253.616 304.655 251.552 307.471 250.08C310.287 248.576 313.455 247.824 316.975 247.824C319.919 247.824 322.591 248.32 324.991 249.312C327.391 250.304 329.407 251.744 331.039 253.632L326.047 258.24C323.647 255.712 320.751 254.448 317.359 254.448C315.215 254.448 313.311 254.896 311.647 255.792C309.983 256.688 308.687 257.952 307.759 259.584C306.831 261.216 306.367 263.088 306.367 265.2C306.367 267.28 306.831 269.136 307.759 270.768C308.687 272.4 309.967 273.68 311.599 274.608C313.263 275.504 315.151 275.952 317.263 275.952C319.503 275.952 321.519 275.472 323.311 274.512V264.672ZM364.614 275.76V282H338.598V248.4H363.99V254.64H346.326V261.936H361.926V267.984H346.326V275.76H364.614ZM114.89 307.4V341H108.506L91.7537 320.6V341H84.0737V307.4H90.5057L107.21 327.8V307.4H114.89ZM140.071 341.576C136.583 341.576 133.431 340.824 130.615 339.32C127.831 337.816 125.639 335.752 124.039 333.128C122.471 330.472 121.687 327.496 121.687 324.2C121.687 320.904 122.471 317.944 124.039 315.32C125.639 312.664 127.831 310.584 130.615 309.08C133.431 307.576 136.583 306.824 140.071 306.824C143.559 306.824 146.695 307.576 149.479 309.08C152.263 310.584 154.455 312.664 156.055 315.32C157.655 317.944 158.455 320.904 158.455 324.2C158.455 327.496 157.655 330.472 156.055 333.128C154.455 335.752 152.263 337.816 149.479 339.32C146.695 340.824 143.559 341.576 140.071 341.576ZM140.071 334.952C142.055 334.952 143.847 334.504 145.447 333.608C147.047 332.68 148.295 331.4 149.191 329.768C150.119 328.136 150.583 326.28 150.583 324.2C150.583 322.12 150.119 320.264 149.191 318.632C148.295 317 147.047 315.736 145.447 314.84C143.847 313.912 142.055 313.448 140.071 313.448C138.087 313.448 136.295 313.912 134.695 314.84C133.095 315.736 131.831 317 130.903 318.632C130.007 320.264 129.559 322.12 129.559 324.2C129.559 326.28 130.007 328.136 130.903 329.768C131.831 331.4 133.095 332.68 134.695 333.608C136.295 334.504 138.087 334.952 140.071 334.952ZM171.751 313.736H160.999V307.4H190.279V313.736H179.527V341H171.751V313.736ZM217.752 313.64V322.52H233.304V328.76H217.752V341H209.976V307.4H235.368V313.64H217.752ZM257.536 341.576C254.048 341.576 250.896 340.824 248.08 339.32C245.296 337.816 243.104 335.752 241.504 333.128C239.936 330.472 239.152 327.496 239.152 324.2C239.152 320.904 239.936 317.944 241.504 315.32C243.104 312.664 245.296 310.584 248.08 309.08C250.896 307.576 254.048 306.824 257.536 306.824C261.024 306.824 264.16 307.576 266.944 309.08C269.728 310.584 271.92 312.664 273.52 315.32C275.12 317.944 275.92 320.904 275.92 324.2C275.92 327.496 275.12 330.472 273.52 333.128C271.92 335.752 269.728 337.816 266.944 339.32C264.16 340.824 261.024 341.576 257.536 341.576ZM257.536 334.952C259.52 334.952 261.312 334.504 262.912 333.608C264.512 332.68 265.76 331.4 266.656 329.768C267.584 328.136 268.048 326.28 268.048 324.2C268.048 322.12 267.584 320.264 266.656 318.632C265.76 317 264.512 315.736 262.912 314.84C261.312 313.912 259.52 313.448 257.536 313.448C255.552 313.448 253.76 313.912 252.16 314.84C250.56 315.736 249.296 317 248.368 318.632C247.472 320.264 247.024 322.12 247.024 324.2C247.024 326.28 247.472 328.136 248.368 329.768C249.296 331.4 250.56 332.68 252.16 333.608C253.76 334.504 255.552 334.952 257.536 334.952ZM297.652 341.576C292.852 341.576 289.108 340.248 286.42 337.592C283.764 334.936 282.436 331.144 282.436 326.216V307.4H290.212V325.928C290.212 331.944 292.708 334.952 297.7 334.952C300.132 334.952 301.988 334.232 303.268 332.792C304.548 331.32 305.188 329.032 305.188 325.928V307.4H312.868V326.216C312.868 331.144 311.524 334.936 308.836 337.592C306.18 340.248 302.452 341.576 297.652 341.576ZM352.328 307.4V341H345.944L329.192 320.6V341H321.512V307.4H327.944L344.648 327.8V307.4H352.328ZM361.238 307.4H376.502C380.15 307.4 383.366 308.104 386.15 309.512C388.966 310.888 391.142 312.84 392.678 315.368C394.246 317.896 395.03 320.84 395.03 324.2C395.03 327.56 394.246 330.504 392.678 333.032C391.142 335.56 388.966 337.528 386.15 338.936C383.366 340.312 380.15 341 376.502 341H361.238V307.4ZM376.118 334.616C379.478 334.616 382.15 333.688 384.134 331.832C386.15 329.944 387.158 327.4 387.158 324.2C387.158 321 386.15 318.472 384.134 316.616C382.15 314.728 379.478 313.784 376.118 313.784H369.014V334.616H376.118Z" fill="white"/>
</svg>
